<svg width="512" height="512" viewBox="0 0 512 512" fill="none" xmlns="http://www.w3.org/2000/svg">
  <defs>
    <linearGradient id="bg" x1="72" y1="52" x2="430" y2="470" gradientUnits="userSpaceOnUse">
      <stop stop-color="#343638"/>
      <stop offset="1" stop-color="#1D1F21"/>
    </linearGradient>
    <linearGradient id="accent" x1="138" y1="136" x2="364" y2="356" gradientUnits="userSpaceOnUse">
      <stop stop-color="#FF6600"/>
      <stop offset="1" stop-color="#FF9D32"/>
    </linearGradient>
  </defs>
  <rect x="24" y="24" width="464" height="464" rx="120" fill="url(#bg)"/>
  <rect x="24" y="24" width="464" height="464" rx="120" stroke="#444648" stroke-width="8"/>
  <circle cx="382" cy="130" r="22" fill="#FEFFC2" fill-opacity="0.9"/>
  <path d="M163 150H212V362H163V150Z" fill="url(#accent)"/>
  <path d="M299.74 352.5C285.34 352.5 271.707 349.633 258.84 343.9C246.107 338.033 234.973 329.9 225.44 319.5L256.04 288.9C261.64 295.167 268.207 300.033 275.74 303.5C283.407 306.833 291.473 308.5 299.94 308.5C314.073 308.5 325.34 304.1 333.74 295.3C342.273 286.367 346.54 274.233 346.54 258.9C346.54 243.833 342.273 231.833 333.74 222.9C325.34 213.967 314.073 209.5 299.94 209.5C291.473 209.5 283.407 211.233 275.74 214.7C268.207 218.033 261.64 222.833 256.04 229.1L225.44 198.5C234.973 188.1 246.107 180.033 258.84 174.3C271.707 168.433 285.34 165.5 299.74 165.5C319.607 165.5 337.34 169.7 352.94 178.1C368.673 186.367 380.94 198.1 389.74 213.3C398.54 228.367 402.94 243.567 402.94 258.9C402.94 274.367 398.54 289.7 389.74 304.9C380.94 320.1 368.673 331.967 352.94 340.5C337.34 348.367 319.607 352.367 299.74 352.5Z" fill="#F5F5F5"/>
  <rect x="140" y="118" width="250" height="276" rx="36" stroke="#FF6600" stroke-opacity="0.18" stroke-width="4"/>
</svg>
